<svg width="50" height="51" viewBox="0 0 50 51" fill="none" xmlns="http://www.w3.org/2000/svg">
<g id="work_update">
<mask id="mask0_1100_5730" style="mask-type:alpha" maskUnits="userSpaceOnUse" x="0" y="0" width="50" height="51">
<rect id="Bounding box" y="0.355469" width="50" height="50" fill="#D9D9D9"/>
</mask>
<g mask="url(#mask0_1100_5730)">
<path id="work_update_2" d="M8.33317 44.1068C7.18734 44.1068 6.20643 43.6988 5.39046 42.8828C4.57449 42.0668 4.1665 41.0859 4.1665 39.9401V17.0234C4.1665 15.8776 4.57449 14.8967 5.39046 14.0807C6.20643 13.2648 7.18734 12.8568 8.33317 12.8568H16.6665V8.6901C16.6665 7.54427 17.0745 6.56337 17.8905 5.7474C18.7064 4.93142 19.6873 4.52344 20.8332 4.52344H29.1665C30.3123 4.52344 31.2932 4.93142 32.1092 5.7474C32.9252 6.56337 33.3332 7.54427 33.3332 8.6901V12.8568H41.6665C42.8123 12.8568 43.7932 13.2648 44.6092 14.0807C45.4252 14.8967 45.8332 15.8776 45.8332 17.0234V25.9297C45.2082 25.4783 44.5485 25.0877 43.854 24.7578C43.1596 24.428 42.4304 24.1415 41.6665 23.8984V17.0234H8.33317V39.9401H23.0728C23.1769 40.6693 23.3332 41.3811 23.5415 42.0755C23.7498 42.77 24.0103 43.447 24.3228 44.1068H8.33317ZM20.8332 12.8568H29.1665V8.6901H20.8332V12.8568ZM37.4998 48.2734C34.6179 48.2734 32.1613 47.2578 30.13 45.2266C28.0988 43.1953 27.0832 40.7387 27.0832 37.8568C27.0832 34.9748 28.0988 32.5182 30.13 30.487C32.1613 28.4557 34.6179 27.4401 37.4998 27.4401C40.3818 27.4401 42.8384 28.4557 44.8696 30.487C46.9009 32.5182 47.9165 34.9748 47.9165 37.8568C47.9165 40.7387 46.9009 43.1953 44.8696 45.2266C42.8384 47.2578 40.3818 48.2734 37.4998 48.2734ZM37.4998 44.1068L43.7498 37.8568L42.2915 36.3984L38.5415 40.1484V31.6068H36.4582V40.1484L32.7082 36.3984L31.2498 37.8568L37.4998 44.1068Z" fill="#0F0F0F"/>
</g>
</g>
</svg>
