<svg width="25" height="25" viewBox="0 0 25 25" fill="none" xmlns="http://www.w3.org/2000/svg">
<g id="uiw:facebook" clip-path="url(#clip0_543_581)">
<path id="Vector" fill-rule="evenodd" clip-rule="evenodd" d="M23.1752 0.19165H1.8248C1.0928 0.19165 0.5 0.78445 0.5 1.51645V22.8669C0.5 23.5989 1.0928 24.1917 1.8248 24.1917H13.3184V14.8977H10.1912V11.2761H13.3184V8.60365C13.3184 5.50285 15.212 3.81565 17.978 3.81565C19.3028 3.81565 20.4404 3.91405 20.7728 3.95845V7.19845H18.8552C17.3504 7.19845 17.06 7.91365 17.06 8.96245V11.2749H20.6468L20.1788 14.8965H17.0588V24.1917H23.1752C23.9072 24.1917 24.5 23.5989 24.5 22.8669V1.51645C24.5 0.78445 23.9072 0.19165 23.1752 0.19165Z" fill="white"/>
</g>
<defs>
<clipPath id="clip0_543_581">
<rect width="24" height="24" fill="white" transform="translate(0.5 0.19165)"/>
</clipPath>
</defs>
</svg>
