<svg width="25" height="25" viewBox="0 0 25 25" fill="none" xmlns="http://www.w3.org/2000/svg">
<g id="bi:instagram" clip-path="url(#clip0_543_585)">
<path id="Vector" d="M12.5 0.19165C9.2435 0.19165 8.834 0.20665 7.5545 0.26365C6.275 0.32365 5.4035 0.52465 4.64 0.82165C3.83914 1.12288 3.11374 1.59539 2.5145 2.20615C1.90411 2.80569 1.43166 3.53101 1.13 4.33165C0.833 5.09365 0.6305 5.96665 0.572 7.24165C0.515 8.52415 0.5 8.93215 0.5 12.1932C0.5 15.4512 0.515 15.8592 0.572 17.1387C0.632 18.4167 0.833 19.2882 1.13 20.0517C1.4375 20.8407 1.847 21.5096 2.5145 22.1772C3.1805 22.8447 3.8495 23.2556 4.6385 23.5616C5.4035 23.8587 6.2735 24.0611 7.5515 24.1196C8.8325 24.1766 9.2405 24.1917 12.5 24.1917C15.7595 24.1917 16.166 24.1766 17.447 24.1196C18.7235 24.0597 19.598 23.8587 20.3615 23.5616C21.1618 23.2603 21.8867 22.7878 22.4855 22.1772C23.153 21.5096 23.5625 20.8407 23.87 20.0517C24.1655 19.2882 24.368 18.4167 24.428 17.1387C24.485 15.8592 24.5 15.4512 24.5 12.1917C24.5 8.93215 24.485 8.52415 24.428 7.24315C24.368 5.96665 24.1655 5.09365 23.87 4.33165C23.5684 3.53099 23.0959 2.80566 22.4855 2.20615C21.8864 1.59516 21.161 1.12262 20.36 0.82165C19.595 0.52465 18.722 0.32215 17.4455 0.26365C16.1645 0.20665 15.758 0.19165 12.497 0.19165H12.5015H12.5ZM11.4245 2.35465H12.5015C15.7055 2.35465 16.085 2.36515 17.3495 2.42365C18.5195 2.47615 19.1555 2.67265 19.5785 2.83615C20.138 3.05365 20.5385 3.31465 20.9585 3.73465C21.3785 4.15465 21.638 4.55365 21.8555 5.11465C22.0205 5.53615 22.2155 6.17215 22.268 7.34215C22.3265 8.60665 22.3385 8.98615 22.3385 12.1887C22.3385 15.3912 22.3265 15.7722 22.268 17.0366C22.2155 18.2066 22.019 18.8412 21.8555 19.2642C21.6631 19.7852 21.356 20.2563 20.957 20.6427C20.537 21.0627 20.138 21.3222 19.577 21.5396C19.157 21.7047 18.521 21.8997 17.3495 21.9537C16.085 22.0107 15.7055 22.0242 12.5015 22.0242C9.2975 22.0242 8.9165 22.0107 7.652 21.9537C6.482 21.8997 5.8475 21.7047 5.4245 21.5396C4.90325 21.3475 4.43169 21.041 4.0445 20.6427C3.64513 20.2557 3.33758 19.7841 3.1445 19.2626C2.981 18.8412 2.7845 18.2052 2.732 17.0352C2.675 15.7707 2.663 15.3912 2.663 12.1856C2.663 8.98165 2.675 8.60365 2.732 7.33915C2.786 6.16915 2.981 5.53315 3.146 5.11015C3.3635 4.55065 3.6245 4.15015 4.0445 3.73015C4.4645 3.31015 4.8635 3.05065 5.4245 2.83315C5.8475 2.66815 6.482 2.47315 7.652 2.41915C8.759 2.36815 9.188 2.35315 11.4245 2.35165V2.35465ZM18.9065 4.34665C18.7174 4.34665 18.5301 4.3839 18.3554 4.45626C18.1807 4.52863 18.022 4.6347 17.8883 4.76842C17.7545 4.90213 17.6485 5.06088 17.5761 5.23559C17.5037 5.4103 17.4665 5.59755 17.4665 5.78665C17.4665 5.97575 17.5037 6.16301 17.5761 6.33771C17.6485 6.51242 17.7545 6.67117 17.8883 6.80488C18.022 6.9386 18.1807 7.04467 18.3554 7.11704C18.5301 7.1894 18.7174 7.22665 18.9065 7.22665C19.2884 7.22665 19.6547 7.07494 19.9247 6.80488C20.1948 6.53483 20.3465 6.16856 20.3465 5.78665C20.3465 5.40474 20.1948 5.03847 19.9247 4.76842C19.6547 4.49836 19.2884 4.34665 18.9065 4.34665ZM12.5015 6.02965C11.6841 6.0169 10.8723 6.16688 10.1135 6.47086C9.35459 6.77485 8.66377 7.22676 8.08123 7.80029C7.49868 8.37381 7.03605 9.0575 6.72026 9.81154C6.40448 10.5656 6.24185 11.3749 6.24185 12.1924C6.24185 13.0099 6.40448 13.8192 6.72026 14.5733C7.03605 15.3273 7.49868 16.011 8.08123 16.5845C8.66377 17.158 9.35459 17.61 10.1135 17.9139C10.8723 18.2179 11.6841 18.3679 12.5015 18.3552C14.1193 18.3299 15.6623 17.6695 16.7975 16.5165C17.9326 15.3635 18.5689 13.8104 18.5689 12.1924C18.5689 10.5744 17.9326 9.02127 16.7975 7.86827C15.6623 6.71528 14.1193 6.05489 12.5015 6.02965ZM12.5015 8.19115C13.5625 8.19115 14.58 8.61263 15.3303 9.36287C16.0805 10.1131 16.502 11.1307 16.502 12.1917C16.502 13.2526 16.0805 14.2702 15.3303 15.0204C14.58 15.7707 13.5625 16.1922 12.5015 16.1922C11.4405 16.1922 10.423 15.7707 9.67272 15.0204C8.92248 14.2702 8.501 13.2526 8.501 12.1917C8.501 11.1307 8.92248 10.1131 9.67272 9.36287C10.423 8.61263 11.4405 8.19115 12.5015 8.19115Z" fill="white"/>
</g>
<defs>
<clipPath id="clip0_543_585">
<rect width="24" height="24" fill="white" transform="translate(0.5 0.19165)"/>
</clipPath>
</defs>
</svg>
