<svg width="25" height="25" viewBox="0 0 25 25" fill="none" xmlns="http://www.w3.org/2000/svg">
<g id="bi:twitter" clip-path="url(#clip0_543_583)">
<path id="Vector" d="M8.039 22.6917C17.096 22.6917 22.0505 15.1872 22.0505 8.69065C22.0505 8.48065 22.0505 8.26765 22.0415 8.05765C23.0061 7.35938 23.8386 6.49488 24.5 5.50465C23.599 5.90193 22.6441 6.16376 21.6665 6.28165C22.6963 5.66611 23.4676 4.69761 23.837 3.55615C22.8695 4.12934 21.8105 4.53171 20.7065 4.74565C19.9643 3.95519 18.9821 3.43153 17.9121 3.25579C16.8421 3.08005 15.7441 3.26203 14.788 3.77356C13.8319 4.28508 13.0712 5.0976 12.6237 6.08524C12.1761 7.07289 12.0668 8.18055 12.3125 9.23665C10.3546 9.13848 8.43922 8.62985 6.69056 7.74377C4.9419 6.85768 3.39903 5.61392 2.162 4.09315C1.53401 5.17778 1.34236 6.46075 1.62597 7.68155C1.90958 8.90235 2.64718 9.96945 3.689 10.6662C2.90831 10.6396 2.14478 10.43 1.46 10.0542V10.1217C1.46135 11.2579 1.85496 12.3588 2.57431 13.2383C3.29366 14.1178 4.29462 14.722 5.408 14.9487C4.98539 15.0651 4.54884 15.1231 4.1105 15.1212C3.80148 15.1221 3.49307 15.0935 3.1895 15.0357C3.50418 16.0137 4.11691 16.8689 4.94187 17.4814C5.76683 18.0938 6.7627 18.4329 7.79 18.4512C6.04483 19.8219 3.8891 20.5653 1.67 20.5617C1.27898 20.5633 0.888235 20.5408 0.5 20.4942C2.75227 21.93 5.36795 22.6925 8.039 22.6917Z" fill="white"/>
</g>
<defs>
<clipPath id="clip0_543_583">
<rect width="24" height="24" fill="white" transform="translate(0.5 0.19165)"/>
</clipPath>
</defs>
</svg>
